<svg data-v-423bf9ae="" xmlns="http://www.w3.org/2000/svg" viewBox="0 0 391.2480849366769 60" class="font"><!----><!----><!----><g data-v-423bf9ae="" id="c6cb42e2-4632-4ef2-a12c-fed3037993cd" fill="white" transform="matrix(4.622496310940746,0,0,4.622496310940746,-4.067797761821794,-14.976887853112999)"><path d="M4.51 6.36C3.51 6.36 2.76 6.77 2.23 7.42L2.11 6.53L0.88 6.53L0.88 16.22L2.29 16.22L2.29 12.32C2.80 12.94 3.54 13.31 4.51 13.31C6.23 13.31 7.60 12.00 7.60 9.84C7.60 7.69 6.23 6.36 4.51 6.36ZM4.17 12.12C2.93 12.12 2.13 11.14 2.13 9.84C2.13 8.55 2.93 7.55 4.17 7.55C5.37 7.55 6.15 8.55 6.15 9.84C6.15 11.14 5.37 12.12 4.17 12.12ZM12.08 6.36C11.29 6.36 10.76 6.74 10.38 7.41L10.21 6.53L8.98 6.53L8.98 13.15L10.40 13.15L10.40 9.70C10.40 8.62 10.97 7.66 12.00 7.66C12.24 7.66 12.45 7.70 12.64 7.79L13.07 6.58C12.89 6.47 12.51 6.36 12.08 6.36ZM17.15 13.34C19.24 13.34 20.68 11.81 20.68 9.84C20.68 7.89 19.24 6.36 17.15 6.36C15.04 6.36 13.59 7.89 13.59 9.84C13.59 11.81 15.04 13.34 17.15 13.34ZM17.15 12.13C15.93 12.13 15.06 11.14 15.06 9.84C15.06 8.56 15.93 7.57 17.15 7.57C18.36 7.57 19.22 8.56 19.22 9.84C19.22 11.14 18.36 12.13 17.15 12.13ZM22.97 5.26C23.48 5.26 23.89 4.86 23.89 4.36C23.89 3.86 23.48 3.46 22.97 3.46C22.46 3.46 22.05 3.86 22.05 4.36C22.05 4.86 22.46 5.26 22.97 5.26ZM23.67 6.53L22.25 6.53L22.25 13.90C22.25 14.86 21.77 15.01 21.48 15.01C21.35 15.01 21.20 14.98 21.16 14.96L21.06 16.16C21.15 16.19 21.36 16.22 21.58 16.22C22.34 16.22 23.67 15.98 23.67 13.77ZM31.88 9.70C31.88 7.73 30.55 6.36 28.63 6.36C26.63 6.36 25.21 7.89 25.21 9.84C25.21 11.80 26.61 13.31 28.79 13.31C29.94 13.31 30.90 12.92 31.50 12.25L30.52 11.46C30.10 11.94 29.53 12.19 28.77 12.19C27.53 12.19 26.80 11.33 26.70 10.15L31.88 10.15ZM28.63 7.50C29.66 7.50 30.33 8.12 30.48 9.17L26.76 9.17C26.96 8.17 27.65 7.50 28.63 7.50ZM36.39 13.34C37.30 13.34 38.05 13.07 38.66 12.60L37.84 11.58C37.48 11.93 36.97 12.13 36.41 12.13C35.12 12.13 34.34 11.14 34.34 9.84C34.34 8.55 35.12 7.57 36.41 7.57C36.97 7.57 37.48 7.77 37.84 8.12L38.66 7.10C38.05 6.64 37.30 6.36 36.39 6.36C34.33 6.36 32.90 7.89 32.90 9.84C32.90 11.81 34.33 13.34 36.39 13.34ZM42.83 11.93C42.74 11.99 42.51 12.06 42.23 12.06C41.78 12.06 41.50 11.80 41.50 11.20L41.50 7.67L42.90 7.67L42.90 6.53L41.50 6.53L41.50 4.64L40.09 4.64L40.09 6.53L39.21 6.53L39.21 7.67L40.09 7.67L40.09 11.32C40.09 12.91 41.08 13.27 41.90 13.27C42.42 13.27 42.85 13.17 43.02 13.08ZM55.21 6.36C54.05 6.36 53.46 6.80 53.04 7.41C52.62 6.66 51.89 6.36 51.13 6.36C50.37 6.36 49.69 6.72 49.31 7.38L49.15 6.53L47.91 6.53L47.91 13.15L49.32 13.15L49.32 9.26C49.41 8.15 49.93 7.57 50.78 7.57C51.68 7.57 52.05 8.31 52.05 9.39L52.05 13.15L53.46 13.15L53.46 9.60C53.46 8.30 53.99 7.57 54.91 7.57C55.83 7.57 56.19 8.31 56.19 9.38L56.19 13.15L57.60 13.15L57.60 9.28C57.60 7.12 56.47 6.36 55.21 6.36ZM61.28 13.34C62.21 13.34 63.09 12.94 63.54 12.31L63.76 13.15L64.95 13.15L64.95 9.19C64.95 7.31 63.98 6.36 62.02 6.36C61.05 6.36 60.23 6.61 59.60 7.10L60.23 8.08C60.67 7.70 61.24 7.51 61.88 7.51C62.93 7.51 63.54 8.01 63.54 8.90L63.54 9.45L63.36 9.39C60.49 8.31 58.92 9.79 58.92 11.21C58.92 12.45 59.97 13.34 61.28 13.34ZM61.70 12.25C60.87 12.25 60.40 11.72 60.40 11.11C60.40 10.34 61.29 9.57 63.35 10.30L63.54 10.35L63.54 10.54C63.54 11.62 62.66 12.25 61.70 12.25ZM71.15 13.15L72.97 13.15L69.91 9.13L72.58 6.53L70.77 6.53L68.05 9.17L68.05 3.24L66.63 3.24L66.63 13.15L68.05 13.15L68.05 10.94L68.94 10.08ZM80.05 9.70C80.05 7.73 78.72 6.36 76.80 6.36C74.80 6.36 73.38 7.89 73.38 9.84C73.38 11.80 74.78 13.31 76.96 13.31C78.11 13.31 79.07 12.92 79.67 12.25L78.69 11.46C78.27 11.94 77.70 12.19 76.94 12.19C75.70 12.19 74.97 11.33 74.87 10.15L80.05 10.15ZM76.80 7.50C77.83 7.50 78.50 8.12 78.65 9.17L74.93 9.17C75.13 8.17 75.82 7.50 76.80 7.50ZM84.53 6.36C83.74 6.36 83.21 6.74 82.83 7.41L82.66 6.53L81.43 6.53L81.43 13.15L82.85 13.15L82.85 9.70C82.85 8.62 83.42 7.66 84.45 7.66C84.69 7.66 84.90 7.70 85.09 7.79L85.52 6.58C85.34 6.47 84.96 6.36 84.53 6.36Z"></path></g><!----><!----></svg>